<?xml version="1.0" encoding="UTF-8" standalone="no"?>
<!-- Created with Inkscape (http://www.inkscape.org/) -->

<svg
   version="1.1"
   id="svg1"
   width="705.34253"
   height="426.85156"
   viewBox="0 0 705.34253 426.85156"
   sodipodi:docname="humanityfirstlogo.svg"
   inkscape:version="1.4.3 (0d15f75, 2025-12-25)"
   xmlns:inkscape="http://www.inkscape.org/namespaces/inkscape"
   xmlns:sodipodi="http://sodipodi.sourceforge.net/DTD/sodipodi-0.dtd"
   xmlns="http://www.w3.org/2000/svg"
   xmlns:svg="http://www.w3.org/2000/svg">
  <defs
     id="defs1" />
  <sodipodi:namedview
     id="namedview1"
     pagecolor="#ffffff"
     bordercolor="#000000"
     borderopacity="0.25"
     inkscape:showpageshadow="2"
     inkscape:pageopacity="0.0"
     inkscape:pagecheckerboard="0"
     inkscape:deskcolor="#d1d1d1"
     inkscape:zoom="1.1865234"
     inkscape:cx="567.62471"
     inkscape:cy="469.0173"
     inkscape:window-width="3840"
     inkscape:window-height="2089"
     inkscape:window-x="-8"
     inkscape:window-y="-8"
     inkscape:window-maximized="1"
     inkscape:current-layer="g1" />
  <g
     inkscape:groupmode="layer"
     inkscape:label="Image"
     id="g1"
     transform="translate(-153.1741,-251.14816)">
    <g
       id="g4">
      <path
         style="display:inline;fill:#0572cb"
         d="M 512.60699,676.41821 C 512.27314,675.54823 512,672.67137 512,670.0252 c 0,-5.15533 0.82001,-6.00567 5.83179,-6.04744 3.51689,-0.0293 6.4933,-2.53987 9.02755,-7.61464 l 2.06589,-4.13689 -7.35805,-21.36311 C 517.52025,619.1134 513.49362,607.475 512.61912,605 c -2.74067,-7.75657 -2.57873,-8 5.32186,-8 4.32704,0 7.22081,0.45276 7.68401,1.20224 0.40867,0.66123 2.82104,8.11305 5.36083,16.55959 2.5398,8.44655 5.04449,15.36719 5.566,15.37922 0.7914,0.0182 5.08101,-13.25483 9.49863,-29.39105 l 1.02664,-3.75 h 6.90244 c 3.79634,0 7.13338,0.37367 7.41564,0.83038 0.6371,1.03085 -19.39075,61.28047 -22.20285,66.79264 -2.70097,5.29434 -9.11514,10.98408 -13.87154,12.30486 -5.82414,1.61727 -11.9925,1.36999 -12.71379,-0.50967 z M 222.18467,653.03208 c -3.79726,-0.9234 -7.63175,-4.18534 -10.02968,-8.53208 -1.39893,-2.53583 -1.65499,-6.40391 -1.65499,-25 v -22 h 7 7 l 0.5,19.84063 c 0.48788,19.35967 0.55723,19.88691 2.86078,21.75 2.84609,2.30188 5.27301,2.40866 9.15213,0.40269 4.14319,-2.14253 5.09063,-6.84928 4.98458,-24.76293 -0.0496,-8.37672 -0.0693,-15.79289 -0.0438,-16.48039 0.0324,-0.87369 2.10617,-1.25 6.8886,-1.25 h 6.84227 l 0.60571,26.67967 c 0.33314,14.67381 0.37757,27.04881 0.0987,27.5 -0.27885,0.45118 -3.22257,0.82033 -6.5416,0.82033 -5.1936,0 -6.10749,-0.27873 -6.55761,-2 -0.55285,-2.1141 -2.74642,-2.68814 -3.79415,-0.99289 -1.94855,3.15282 -11.63541,5.40512 -17.31093,4.02497 z m 135.09038,-0.003 c -5.031,-1.19532 -8.27659,-3.81926 -10.33688,-8.35702 -2.39375,-5.2722 -2.40399,-10.04961 -0.0327,-15.27097 3.06887,-6.75745 9.0589,-9.95197 20.62641,-11.00019 4.67967,-0.42406 7.8309,-1.1826 8.12787,-1.95647 0.83506,-2.17615 -2.5555,-7.38015 -5.24881,-8.05613 -3.45234,-0.86648 -10.76174,0.22466 -14.51839,2.16731 -1.69016,0.87401 -3.64279,1.37048 -4.33918,1.10325 -1.43602,-0.55105 -3.73778,-8.55138 -2.86609,-9.9618 1.35957,-2.19983 10.06818,-4.93794 17.27661,-5.43202 11.90959,-0.8163 18.53711,2.224 22.13982,10.15638 1.60994,3.54475 1.85528,6.79457 1.87437,24.8286 L 390,652 h -5.4433 c -4.46039,0 -5.71916,-0.39386 -6.97105,-2.18118 -1.46981,-2.09844 -1.60222,-2.1138 -3.49051,-0.40492 -2.28304,2.06612 -8.70308,4.52439 -11.59514,4.43985 -1.1,-0.0322 -3.45123,-0.40327 -5.22495,-0.82469 z m 13.11195,-11.9861 c 4.59374,-1.74653 7.7698,-12.27809 4.12462,-13.67687 -1.81899,-0.69802 -10.75742,1.35317 -12.9167,2.96411 -0.86239,0.64339 -1.84591,2.58542 -2.18562,4.31563 -1.11513,5.67976 4.4045,8.89626 10.9777,6.39713 z m 118.7094,10.69228 c -1.32198,-0.67939 -3.34698,-2.50401 -4.5,-4.0547 -1.88752,-2.53851 -2.1229,-4.38184 -2.36241,-18.5 -0.33483,-19.73755 -0.38647,-19.97197 -4.4872,-20.36744 C 474.51591,608.50153 474.5,608.47305 474.5,603 c 0,-5.47305 0.0159,-5.50153 3.24679,-5.81312 3.5014,-0.33767 3.98985,-1.27754 4.48667,-8.63317 0.2635,-3.90121 0.33489,-3.96652 6.24986,-5.71668 3.29082,-0.97372 6.30541,-1.44789 6.69907,-1.05371 0.39367,0.39417 0.85118,3.86668 1.01668,7.71668 l 0.30093,7 5.5,0.5 5.5,0.5 v 5.5 5.5 l -5.5,0.5 -5.5,0.5 -0.2896,12 c -0.15928,6.6 -0.0461,12.98103 0.2515,14.18007 0.88417,3.56226 3.39831,5.31993 7.60953,5.31993 H 508 v 4.96482 c 0,3.88511 -0.42065,5.18993 -1.93426,6 -2.66956,1.4287 -14.04199,1.27486 -16.96934,-0.22956 z m -335.62183,-0.94092 c -0.27387,-0.71372 -0.38019,-19.29692 -0.23626,-41.296 L 153.5,569.5 h 7 7 l 0.26034,14.5 c 0.14318,7.975 0.44919,15.01724 0.68001,15.64942 0.28176,0.77168 1.97724,0.36088 5.15915,-1.25 9.6916,-4.90651 20.04369,-2.57166 24.84643,5.60398 1.87375,3.18964 2.08332,5.44987 2.38724,25.7466 l 0.33317,22.25 h -6.961 -6.961 l -0.41339,-18.35689 c -0.34625,-15.37575 -0.69948,-18.79352 -2.17506,-21.04553 -2.59138,-3.95496 -5.86729,-5.16687 -9.68829,-3.58416 -5.81947,2.41051 -6.41529,4.50023 -6.9676,24.43747 l -0.5,18.04911 -6.76373,0.296 c -4.84319,0.21196 -6.90513,-0.0725 -7.2617,-1.00166 z m 112.23439,0.58129 C 265.31903,650.9857 265,638.59167 265,623.83333 V 597 h 6.5 c 3.575,0 6.50689,0.3375 6.51531,0.75 0.008,0.4125 0.40515,1.36536 0.88162,2.11746 0.69981,1.10466 1.48171,0.91247 4.06846,-1 2.6846,-1.9848 4.39025,-2.36746 10.55273,-2.36746 6.75277,0 7.59735,0.23645 10.38527,2.90745 l 3.03472,2.90744 4.13678,-2.86679 c 3.21244,-2.22622 5.50966,-2.94518 10.28095,-3.21762 7.94963,-0.45393 12.28658,1.74506 15.39416,7.8054 2.13065,4.15515 2.25,5.54602 2.25,26.2217 v 21.8338 l -6.75,-0.29569 -6.75,-0.29569 -0.55207,-19 c -0.30364,-10.45 -0.89001,-19.72423 -1.30304,-20.60941 -1.15056,-2.46577 -5.18916,-4.22179 -8.05519,-3.50246 -5.24049,1.31528 -6.04366,4.30924 -6.5897,24.56456 l -0.5,18.54731 -6.65731,0.29358 -6.6573,0.29357 -0.40466,-19.29357 c -0.22257,-10.61147 -0.74661,-20.03988 -1.16455,-20.95202 -1.18429,-2.58469 -5.78715,-4.10726 -8.87151,-2.93459 C 280.12503,610.66336 279.53704,613.12936 279,633 l -0.5,18.5 -6.04104,0.29229 c -3.32257,0.16076 -6.36007,-0.0267 -6.75,-0.41666 z M 399,624.54569 V 597 h 5.96482 c 4.97186,0 6.14577,0.33812 7.05186,2.03116 1.08322,2.02403 1.09829,2.02315 4.28518,-0.25 4.47119,-3.1892 17.15625,-3.32285 21.30619,-0.22447 6.00988,4.48702 6.6399,7.3948 6.77193,31.25487 L 444.5,651.5 h -7 -7 l -0.53067,-19 c -0.29187,-10.45 -0.8867,-19.7463 -1.32186,-20.65844 -1.37025,-2.87227 -6.18334,-4.27645 -9.68569,-2.82573 C 414.01365,611.06542 413.54149,612.9649 413,633 l -0.5,18.5 -6.75,0.29569 -6.75,0.29569 z m 54.46891,26.23389 c -0.27699,-0.72183 -0.38331,-13.00503 -0.23627,-27.296 L 453.5,597.5 h 7 7 v 27 27 l -6.76373,0.296 c -4.87993,0.21356 -6.904,-0.0695 -7.26736,-1.01642 z m 0.98564,-66.23413 C 452.79336,582.88427 452,580.97138 452,578.62724 c 0,-4.84392 0.81638,-6.48092 4.07152,-8.16423 4.36083,-2.25507 7.73836,-1.80698 11.0054,1.46007 C 473.14771,577.99386 469.51768,587 461,587 c -3.0101,0 -4.73939,-0.64848 -6.54545,-2.45455 z m 1.29419,-180.00365 c -6.46319,-1.76604 -12.08819,-3.54811 -12.5,-3.96015 -0.41181,-0.41204 -0.72725,-10.04898 -0.70099,-21.41541 0.0397,-17.19437 0.43667,-22.76621 2.36279,-33.16624 2.30536,-12.44773 6.52145,-27.69621 8.12606,-29.38983 1.61453,-1.70409 32.91053,-5.57995 45.2134,-5.59946 L 505,311 v 15.92245 15.92245 l -3.75,1.21497 c -24.53457,7.94903 -37.14324,28.00467 -33.15406,52.73562 1.67389,10.37731 1.67777,10.48044 0.40406,10.74756 -0.55,0.11535 -6.28807,-1.23522 -12.75126,-3.00125 z M 419,394.41808 c -4.125,-1.32314 -17.85,-4.93312 -30.5,-8.02217 -33.8617,-8.26882 -31.04455,-7.17824 -30.76062,-11.9081 0.53536,-8.91843 5.86966,-25.7774 12.38983,-39.15794 19.64884,-40.32283 55.63256,-69.05056 99.95414,-79.79876 10.56499,-2.56206 30.9427,-5.11883 33.37096,-4.18702 C 504.78888,251.85621 505,255.2003 505,275.827 v 23.88978 l -12.25,1.19085 c -12.86233,1.25038 -27.02042,3.43438 -32.48652,5.01131 -1.85563,0.53534 -3.46902,0.5575 -3.78147,0.0519 -0.60084,-0.97218 7.72907,-18.14246 13.23427,-27.27953 1.92487,-3.19475 3.28811,-6.0203 3.02941,-6.279 -0.2587,-0.2587 -3.21567,1.59332 -6.57104,4.1156 -6.82986,5.1341 -14.382,14.60079 -19.72223,24.72204 -1.95881,3.7125 -4.2289,6.75 -5.04465,6.75 -2.75434,0 -19.66774,7.01342 -25.80984,10.70247 -9.28046,5.57402 -22.33233,15.89647 -21.34638,16.88242 0.21108,0.21108 5.20017,-2.03044 11.08687,-4.98115 C 416.17849,325.17014 433.03788,319 437.04463,319 c 2.4782,0 2.56738,-0.85624 -1.44177,13.84229 -3.88971,14.2606 -5.8192,28.98957 -6.17765,47.15771 -0.24854,12.59766 -0.63295,16.53829 -1.62537,16.66189 -0.71491,0.089 -4.67484,-0.92067 -8.79984,-2.24381 z"
         id="path6"
         sodipodi:nodetypes="sssscssssssscsssssssscccsssssscssssssssssssssssssscssssssssssssssssssssscccccccssscssssscccssssscccsssscsssscscsssscsssscccsssscccsssscssccssssscccssssccccsscccccsssssssssssssscccssssssssssscssssssssssssssss" />
      <path
         style="display:inline;fill:#192837"
         d="m 763.32874,652.56493 c -4.00976,-1.77291 -5.68384,-4.85855 -4.90072,-9.03294 1.56771,-8.35658 13.21658,-9.98751 17.14036,-2.39977 3.73957,7.23154 -4.44688,14.87828 -12.23964,11.43271 z M 680.5,652.28534 c -1.1,-0.26547 -3.4625,-1.16454 -5.25,-1.99794 -2.9857,-1.39205 -3.24875,-1.89231 -3.23469,-6.15134 0.023,-6.95544 0.67053,-7.44325 6.79267,-5.11702 5.79654,2.20251 15.141,2.63198 16.99202,0.78096 1.90341,-1.90341 1.3982,-5.54777 -1.00215,-7.22904 -1.21118,-0.84834 -5.01183,-2.47744 -8.4459,-3.62023 -7.51205,-2.49985 -11.12883,-5.17247 -12.97313,-9.58651 -3.77543,-9.03587 1.01671,-18.67413 10.92028,-21.96356 5.66063,-1.88016 16.68886,-1.4698 21.44176,0.79786 2.29316,1.09409 2.81202,2.05224 3.07223,5.67335 0.48468,6.74488 0.003,7.32746 -4.68708,5.67259 -11.01755,-3.88722 -18.60567,-2.51052 -17.93639,3.25417 0.27691,2.38514 1.26415,3.01503 9.15594,5.84184 10.60034,3.797 14.16655,6.85733 15.55947,13.35229 1.92963,8.99758 -2.99239,17.54994 -11.45195,19.89859 -3.92097,1.08858 -15.111,1.3212 -18.95308,0.39399 z m 48.71639,-0.79034 c -5.85319,-2.54319 -7.16885,-7.33109 -7.19443,-26.18164 L 722,609.12672 l -3.25,-0.31336 c -3.23397,-0.31181 -3.25,-0.34044 -3.25,-5.80354 0,-5.31901 0.0935,-5.50625 3,-6.00553 2.82909,-0.48598 3.01706,-0.80947 3.29944,-5.6784 0.16469,-2.83968 0.83969,-5.57091 1.5,-6.06939 1.23569,-0.93285 9.41939,-3.64941 11.20056,-3.71799 0.55,-0.0212 1.225,3.33649 1.5,7.46149 l 0.5,7.5 5.5,0.5 5.5,0.5 0.31105,4.90325 c 0.36844,5.80795 -0.4385,6.56009 -7.06105,6.58144 L 736,609 v 13.77749 c 0,16.28035 0.65362,17.93672 7.26701,18.41584 L 747.5,641.5 l 0.30495,4.75386 c 0.27809,4.33519 0.0742,4.84159 -2.3151,5.75 -3.75921,1.42925 -12.43741,1.15789 -16.27346,-0.50886 z m 61.85469,-0.19094 C 785.31573,648.27599 783.5,644.84553 783.5,637 c 0,-5.38237 0.44828,-7.45933 2.08858,-9.67667 3.37753,-4.56571 9.354,-7.25895 18.81945,-8.48082 8.38719,-1.08268 8.59197,-1.17328 8.59197,-3.8015 0,-6.68784 -8.79544,-9.01044 -19.17967,-5.06474 -2.86062,1.08695 -5.44531,1.73208 -5.74376,1.43363 -0.29845,-0.29845 -1.05906,-2.29164 -1.69024,-4.42931 -1.44279,-4.88642 -0.4145,-5.95982 8.61367,-8.99158 12.8927,-4.32952 25.17751,-1.42428 30,7.09471 2.4471,4.32284 2.5,4.86062 2.5,25.41628 v 21 l -5.188,0.30011 c -4.55793,0.26366 -5.33342,0.0208 -6.38545,-2 -0.6586,-1.26506 -1.33195,-2.45805 -1.49633,-2.6511 -0.16437,-0.19304 -1.95744,0.91407 -3.98458,2.46025 -4.79111,3.65435 -14.10204,4.46883 -19.37456,1.6948 z M 809.93857,640.25 c 2.31379,-1.87448 4.34564,-8.62157 3.46317,-11.5 -0.62411,-2.0357 -2.78481,-2.18594 -8.98486,-0.62475 -4.68492,1.17967 -8.41688,4.73105 -8.41688,8.00961 0,5.17479 9.25706,7.90779 13.93857,4.11514 z M 586.24266,650.84266 C 585.33407,649.93407 585,644.14275 585,629.3 V 609 h -2.8 c -3.74992,0 -5.2,-1.67317 -5.2,-6 0,-4.28123 1.44818,-6 5.0554,-6 2.54467,0 2.68121,-0.27652 3.2747,-6.63202 1.10897,-11.87577 5.63966,-18.04984 15.40125,-20.98764 8.15233,-2.45349 21.41857,-1.08214 24.70946,2.55425 1.87836,2.07557 1.62258,11.21095 -0.33213,11.86252 -0.62719,0.20906 -3.23838,-0.33477 -5.80265,-1.2085 -11.53605,-3.93073 -18.98724,-0.52951 -19.52253,8.91139 l -0.2835,5 5,0.5 5,0.5 v 5.5 5.5 l -5,0.5 -5,0.5 -0.5,21 -0.5,21 -5.50734,0.29266 c -3.42064,0.18178 -5.97817,-0.17817 -6.75,-0.95 z m 29.22704,-0.061 c -0.27743,-0.72296 -0.3841,-13.00708 -0.23706,-27.29805 L 615.5,597.5 h 6.5 6.5 v 27 27 l -6.26294,0.29805 c -4.47367,0.21291 -6.40706,-0.0775 -6.76736,-1.01642 z m 24,0 c -0.27743,-0.72296 -0.3841,-13.00708 -0.23706,-27.29805 L 639.5,597.5 l 5.7621,-0.30026 c 4.50958,-0.235 5.86815,0.0367 6.25,1.25 1.66438,5.28842 1.48423,5.21984 4.38615,1.66973 2.31516,-2.8323 3.58055,-3.45906 7.80259,-3.86475 2.77161,-0.26631 5.2987,-0.0645 5.61576,0.44853 0.31705,0.51301 0.31755,3.4414 10e-4,6.50754 l -0.57537,5.5748 -4.12116,0.65775 c -4.83065,0.77098 -8.04948,2.67292 -9.82715,5.80666 -0.83094,1.46482 -1.45391,8.18248 -1.78518,19.25 l -0.50883,17 -6.26294,0.29805 c -4.47367,0.21291 -6.40706,-0.0775 -6.76736,-1.01642 z m 203.14869,0.40994 c -0.96272,-1.55772 -0.79979,-52.41017 0.17103,-53.38099 0.5055,-0.5055 3.57217,-0.78217 6.81483,-0.61483 L 855.5,597.5 v 27 27 l -6.16289,0.29546 c -3.38959,0.1625 -6.41301,-0.10925 -6.71872,-0.60389 z M 845.5,587.84527 c -3.17298,-1.73549 -4.5,-3.97133 -4.5,-7.58185 0,-7.37111 8.80608,-10.91478 14.64424,-5.89301 7.591,6.52951 -1.2854,18.32027 -10.14424,13.47486 z M 490.77437,540.137 c -9.74909,-2.57854 -18.15652,-5.12672 -18.68317,-5.66263 -0.52665,-0.5359 -1.90046,-11.54937 -3.0529,-24.47437 -3.93987,-44.18694 -4.17599,-45.06112 -14.23516,-52.70415 -9.49579,-7.21497 -47.12412,-28.28316 -82.52318,-46.20492 C 358.91195,404.323 354,400.62257 354,397.31969 c 0,-0.77583 1.15695,-2.56755 2.571,-3.9816 3.36577,-3.36576 4.1837,-3.2197 35.14428,6.27594 85.34923,26.17669 99.6708,29.34723 126.71445,28.05234 22.53358,-1.07895 40.50924,-5.59769 114.07027,-28.6751 25.60071,-8.03141 30.61754,-8.79772 33.58786,-5.13049 4.77648,5.89718 2.11519,8.42361 -23.08786,21.91786 -11.275,6.03687 -30.4,16.27179 -42.5,22.74425 -34.02555,18.20076 -39.21635,21.99627 -41.45563,30.31234 -1.04496,3.88068 -5.03107,50.39153 -5.05968,59.03752 -0.008,2.54499 -0.38448,5.20916 -0.83567,5.92038 -0.97128,1.53101 -37.30078,11.22154 -41.64902,11.10945 -1.65,-0.0425 -10.97653,-2.18704 -20.72563,-4.76558 z M 324,540.1501 c 0,-0.99973 3.57488,-2.48788 14.65424,-6.10027 17.12184,-5.58251 44.35234,-11.37971 64.34576,-13.69878 16.60505,-1.92606 18,-2.17628 18,-3.22879 0,-0.46181 -4.47989,-4.50613 -9.95531,-8.98739 C 389.74955,490.70624 373.09926,465.64895 363.50946,436.59835 359.60692,424.77628 358.30347,418 359.93197,418 c 0.60928,0 2.78633,1.05061 4.8379,2.33468 2.05157,1.28407 12.95513,7.41794 24.23013,13.63082 57.71938,31.80519 56.60535,31.12656 60.95613,37.13263 1.81365,2.50368 3.23252,6.18186 3.92034,10.16283 1.60041,9.26286 5.36665,48.66309 4.79426,50.15472 -0.38356,0.99954 -7.98923,1.42708 -33.83276,1.90182 -18.33588,0.33683 -39.63797,1.08956 -47.33797,1.67273 -15.88697,1.20324 -49.11067,4.80525 -51.75,5.61057 -0.9625,0.29369 -1.75,0.0909 -1.75,-0.4507 z m 372.91667,0.43409 c -0.48663,-0.48562 -21.7828,-2.98637 -43.91667,-5.15701 -8.525,-0.83603 -31.56363,-1.78741 -51.19695,-2.11418 -24.74464,-0.41183 -35.81959,-0.93451 -36.09666,-1.70356 -0.21985,-0.61019 -0.13122,-3.34796 0.19694,-6.08393 l 0.59667,-4.9745 11.44992,-5.83039 c 14.30977,-7.28664 22.13363,-12.83386 33.41288,-23.69016 16.04448,-15.44284 26.93649,-32.77343 34.53366,-54.9475 3.57988,-10.44868 3.64293,-10.54562 9.60354,-14.76599 3.3,-2.33655 6.39547,-4.26372 6.87883,-4.28262 1.58901,-0.0621 -0.41302,10.01099 -4.40723,22.17471 -7.03657,21.42876 -17.72737,40.36004 -31.62309,55.99821 -6.35091,7.14727 -18.06355,17.49949 -22.46327,19.85415 -1.03688,0.55492 -1.88524,1.42272 -1.88524,1.92845 0,1.04054 2.17506,1.42536 17,3.00772 19.69098,2.10175 45.45113,7.20572 61,12.08621 13.72224,4.30713 20.97285,7.15111 20.43798,8.01656 -0.57057,0.9232 -2.77722,1.22639 -3.52131,0.48383 z M 498.5,416.64175 c -5.26026,-2.46044 -12.08163,-9.11152 -15.15576,-14.77739 -1.40045,-2.58115 -1.82759,-5.57592 -1.83482,-12.86436 -0.008,-8.1391 0.344,-10.19188 2.45767,-14.32977 5.26918,-10.31533 15.01407,-16.12926 27.03291,-16.12819 6.29632,5.6e-4 8.43377,0.46999 13.3182,2.92497 10.0078,5.03005 15.65528,13.48911 16.45643,24.64922 0.60266,8.39513 -1.52433,15.12242 -6.95254,21.98963 -8.10519,10.25383 -23.62892,14.00528 -35.32209,8.53589 z m 62.77066,-12.5508 c -7.09299,-3.3117 -10.64071,-11.57475 -8.30983,-19.35455 1.13686,-3.79449 3.5112,-6.7403 8.84722,-10.97661 1.97838,-1.57066 2.19195,-2.66046 2.19195,-11.1849 0,-5.19458 0.46723,-10.67359 1.03828,-12.17558 0.57106,-1.50198 3.50242,-5.09853 6.51415,-7.99231 l 5.47586,-5.26143 -0.26414,-31.82278 L 576.5,273.5 l -8.30787,-4.32363 c -7.98018,-4.1531 -8.29572,-4.44892 -8,-7.5 0.26986,-2.78421 0.64933,-3.15286 3.07359,-2.98595 1.52114,0.10472 7.85509,2.65578 14.07543,5.66901 33.11586,16.04184 57.21025,39.7103 72.18718,70.9111 5.57244,11.60881 12.24228,32.60902 12.70665,40.00727 L 662.5,379.5 h -4.49257 -4.49257 L 650.45694,368 c -3.82913,-14.40034 -6.299,-20.9167 -12.51374,-33.01552 -5.40755,-10.5274 -13.72995,-23.12312 -15.6932,-23.75123 -0.96923,-0.31009 -1.25,3.73665 -1.25,18.01605 v 18.41597 l 3.85197,3.09553 c 5.30297,4.26158 7.48216,9.19646 6.94128,15.71881 -0.52306,6.30743 -3.45168,10.79532 -8.83763,13.54303 -6.70131,3.41876 -13.87121,2.04771 -19.08499,-3.64948 -7.61131,-8.317 -5.37572,-18.76133 5.91061,-27.61337 C 611.96076,347.05035 612,346.60344 612,323.48744 v -23.53213 l -4.03372,-4.37607 C 603.40203,290.62762 589.97139,281 587.62807,281 c -1.35338,0 -1.58125,3.79186 -1.83658,30.56152 l -0.29149,30.56151 -6.25,5.80044 -6.25,5.80044 v 9.51935 9.51936 l 3.58514,2.73452 c 5.2366,3.99416 7.40674,8.12439 7.41112,14.10498 0.009,11.99085 -11.86369,19.56021 -22.7256,14.48883 z m 11.41489,-9.26526 c 2.78375,-2.6152 3.12313,-8.27463 0.65946,-10.99695 C 569.50686,379.58763 561,383.30256 561,389.21977 c 0,3.45906 3.96564,7.78023 7.14009,7.78023 1.22706,0 3.27251,-0.97844 4.54546,-2.17431 z m 48,-24 c 3.17108,-2.97908 3.1077,-8.12335 -0.1401,-11.37114 -2.99863,-2.99864 -5.45043,-3.10374 -8.91059,-0.38197 -2.04741,1.61049 -2.63486,2.94821 -2.63486,6 0,7.1478 6.6933,10.44308 11.68555,5.75311 z m -84.37917,-27.91967 c -4.5789,-1.33911 -9.88239,-6.75883 -11.32472,-11.57291 -2.21116,-7.38018 0.96658,-15.59998 7.5274,-19.47096 L 536,309.80245 v -24.36268 -24.36268 l -3.75,-0.94392 c -2.0625,-0.51915 -5.41214,-1.22713 -7.44364,-1.57328 -4.03069,-0.6868 -5.85466,-3.59183 -3.80548,-6.06096 0.92401,-1.11336 3.27693,-1.28278 11.33262,-0.81601 5.59158,0.324 10.729,1.03298 11.4165,1.57553 0.94633,0.7468 1.25,7.73511 1.25,28.76596 v 27.77951 l 3.75,1.93645 c 8.98668,4.6406 11.06647,18.44353 3.93339,26.10464 -4.29465,4.61257 -10.91488,6.65842 -16.37701,5.06101 z m 8.30853,-9.81291 c 4.98774,-3.04142 5.08692,-9.73337 0.19834,-13.38322 -7.80747,-5.82911 -16.22139,6.40311 -8.73652,12.70122 3.67242,3.09014 4.48283,3.15487 8.53818,0.682 z"
         id="path5" />
    </g>
    <g
       id="g2"
       style="display:none">
      <path
         style="fill:#fefefe"
         d="M 512,1024 H 0 V 512 0 h 512 512 v 512 512 z m 5.54094,-346 h 4.20761 l 4.372,-1.54253 4.372,-1.54253 3.34135,-3.20747 3.34136,-3.20747 1.86079,-3.60906 1.8608,-3.60906 10.55157,-31.83894 L 562,597.60401 v -0.302 V 597 h -7.46146 -7.46145 l -1.10874,4.25 -1.10874,4.25 -3.9024,13.38926 -3.9024,13.38927 -0.41387,0.41386 -0.41386,0.41387 -2.04198,-6.80313 L 532.14311,619.5 528.87065,608.25 525.59818,597 h -7.72682 -7.72681 l 5.32564,15.75 5.32565,15.75 4.08829,11.69927 4.08828,11.69928 -1.92305,4.48629 -1.92304,4.48629 -2.73641,1.79296 -2.7364,1.79296 -3.82676,-0.10034 L 512,664.25637 v 6.20515 6.20515 l 0.66667,0.66666 L 513.33333,678 Z M 229.5,653.30302 l 4,-0.53528 2,-1.00606 2,-1.00605 2.75,-2.56491 2.75,-2.5649 V 648.81291 652 h 7.03701 7.03701 l -0.4952,-6.75 -0.4952,-6.75 -0.0418,-20.75 L 256,597 l -7.25,-10e-4 -7.25,-10e-4 0.294,17.42804 0.29401,17.42804 -1.49564,3.57955 -1.49563,3.57956 -2.61347,0.99364 L 233.8698,641 h -1.98035 -1.98036 L 227.45455,638.54545 225,636.09091 V 616.54545 597 h -7.58317 -7.58317 l 0.33702,22.25 0.33701,22.25 1.65114,3 1.65114,3 2.52968,2.36294 2.52969,2.36293 3.31533,0.80621 3.31533,0.80621 z m 132.62427,0.65321 1.62428,0.0438 4.34725,-1.5338 4.34726,-1.5338 2.15534,-2.02484 2.15535,-2.02485 0.64218,2.55865 L 378.0381,652 H 384.01905 390 l -0.022,-20.75 -0.022,-20.75 -1.85241,-4.0786 -1.85241,-4.0786 -2.75618,-2.16801 -2.75617,-2.16801 -4.11946,-1.11935 -4.11945,-1.11935 -7.16732,0.53259 -7.16732,0.53259 -4.45363,1.97006 -4.45363,1.97005 -0.57376,0.92836 -0.57375,0.92835 1.50587,5.13703 1.50588,5.13702 4.12868,-2.15199 4.12868,-2.15199 5.57219,-0.40305 5.5722,-0.40306 2.23494,1.85298 2.23495,1.85298 0.59767,3.09833 0.59768,3.09833 -8.18973,0.683 -8.18973,0.68299 -4.94099,2.50379 -4.94099,2.50379 -1.96103,3.21489 -1.96104,3.21488 -0.6142,3.25 -0.6142,3.25 0.63564,3.38825 0.63564,3.38824 2.24879,3.36176 2.24879,3.36175 4.97686,1.70623 4.97686,1.70623 z M 366.44424,642 H 363 l -2,-2 -2,-2 v -1.91821 -1.91822 l 0.62118,-1.61877 0.62118,-1.61877 2.72244,-1.40783 2.72244,-1.40783 5.29779,-0.70277 5.29779,-0.70278 -0.51298,5.33875 -0.51299,5.33875 -2.68419,2.30884 L 369.88847,642 Z M 692.5,653.25063 l 3,-0.36992 4.17025,-1.04799 4.17025,-1.04799 3.06024,-2.99195 3.06025,-2.99195 1.01393,-3.65042 1.01393,-3.65041 -0.0164,-2.5 -0.0164,-2.5 -1.85996,-4.09546 -1.85996,-4.09547 -3.36808,-2.05919 -3.36808,-2.05919 -5.42058,-1.5921 -5.42057,-1.5921 -2.32943,-1.5263 L 686,613.95389 V 612.17695 610.4 l 1.2,-1.2 1.2,-1.2 h 5.28927 5.28928 l 5.01072,1.90393 5.01073,1.90392 v -6.2826 -6.28261 L 705.75,597.87132 702.5,596.5 h -9 -9 l -3.7841,1.88013 -3.78411,1.88012 -2.46589,4.20773 -2.4659,4.20774 v 4.26101 4.26101 l 1.58615,3.34257 1.58616,3.34257 2.52974,1.65755 2.52975,1.65756 7.01246,2.38509 7.01246,2.38509 1.37164,1.13836 1.37164,1.13836 v 2.34237 2.34237 l -1.93426,1.03519 -1.93426,1.03518 -4.31574,-0.0237 -4.31574,-0.0237 -5.94788,-2.44506 -5.94787,-2.44505 -0.17807,0.21879 -0.17806,0.21879 -0.45609,5.74703 -0.45608,5.74702 1.58202,1.42787 1.58203,1.42788 4.5,1.0558 4.5,1.0558 3,0.32958 3,0.32958 z m 50,-0.41608 4,-0.74745 0.75,-0.0435 L 748,652 v -5.81284 -5.81284 l -4.70241,0.0628 -4.70241,0.0628 -1.28285,-2.5 -1.28285,-2.5 -0.0147,-13.25 L 736,609 h 6 6 v -6 -6 h -6 -6 v -8.34633 -8.34634 l -5.25,1.81369 -5.25,1.81369 -1.75,0.0326 L 722,584 v 6.5 6.5 h -3.5 -3.5 v 6 6 h 3.5 3.5 v 16.53212 16.53212 l 1.36198,3.21788 1.36199,3.21788 2.0434,1.81936 2.0434,1.81937 4.84462,0.72163 4.84461,0.72164 z m 25.94958,0.83197 4.04729,-0.54285 2.25157,-2.6176 2.25156,-2.6176 v -3.02116 -3.02116 l -2.92308,-2.92307 -2.92307,-2.92308 -2.82693,0.0136 -2.82692,0.0137 -2.29005,0.61345 -2.29005,0.61345 -1.45995,2.82323 L 758,642.90068 v 2.96077 2.96076 l 3.20114,2.69359 3.20115,2.69358 z m 30.05042,0.22582 2,0.0965 4,-1.08552 4,-1.08551 3.17195,-3.02943 3.17195,-3.02942 0.32805,2.87051 0.32805,2.87052 6.25,0.29772 6.25,0.29771 -0.0239,-19.29771 -0.0239,-19.29772 -0.90976,-3.92261 -0.90977,-3.9226 -1.87492,-2.5774 -1.87493,-2.57739 -4.44145,-2.30831 -4.44146,-2.30832 -8.5,0.32398 -8.5,0.32397 -5.87465,2.73609 -5.87465,2.73608 0.55189,2.74825 0.55189,2.74826 1.03327,2.71124 1.03327,2.71123 4.61456,-2.04123 4.61456,-2.04124 5.17493,-0.52506 5.17493,-0.52505 2.75,2.17763 2.75,2.17764 v 2.78949 2.78949 l -7.66846,0.69489 -7.66845,0.6949 -3.5679,1.49076 -3.5679,1.49077 -2.35547,2.20227 -2.35546,2.20227 -1.06457,1.97647 -1.06457,1.97648 -0.80466,3.52352 -0.80465,3.52353 1.00312,3.76313 1.00313,3.76313 2.92662,3.33323 2.92661,3.33323 3.28131,1.05155 3.2813,1.05155 z m 5.29966,-12.00834 -2.29966,-0.116 -1.61067,-0.43049 -1.61067,-0.43049 -0.96686,-2.20351 -0.96687,-2.20351 0.60122,-2.5 0.60123,-2.5 3.47631,-1.7049 3.47631,-1.7049 4.25,-0.67291 4.25,-0.67291 v 4.54602 4.54603 l -0.62118,1.61877 -0.62118,1.61877 -2.82916,1.46302 L 806.09932,642 Z M 497.5,652.9716 l 6,0.001 2.25,-0.60298 2.25,-0.60297 v -5.69621 -5.69621 l -4.70241,0.0628 -4.70241,0.0628 -1.28285,-2.5 -1.28285,-2.5 -0.0147,-13.25 L 496,609 h 6 6 v -6 -6 h -6 -6 v -8.11663 -8.11663 l -2.25,0.64053 -2.25,0.64054 -4.75,1.14784 -4.75,1.14785 V 590.67175 597 h -4 -4 v 6 6 h 3.93688 3.93687 l 0.31313,17.9302 0.31312,17.9302 2.0964,2.8198 2.0964,2.8198 2.4036,1.23526 2.4036,1.23526 z M 160.43939,652 h 7.43939 l 0.31061,-18.92201 0.31061,-18.92201 2.37558,-2.52612 2.37558,-2.52611 2.80143,-0.6153 2.80143,-0.6153 2.95181,1.52644 2.95181,1.52644 0.76718,1.78698 0.76719,1.78699 0.47432,18.75 0.47433,18.75 h 6.94959 6.94959 L 200.81992,630.25 200.5,608.5 l -2,-3.93547 -2,-3.93546 -2.63576,-1.9245 -2.63577,-1.92449 -4.55176,-0.51305 -4.55176,-0.51305 -3.4619,0.64945 -3.46189,0.64946 -3.60058,2.44342 L 168,601.93973 V 585.46986 569 H 160.5 153 V 610.5 652 Z M 272,652 h 7 l 0.004,-18.25 0.004,-18.25 1.96524,-3.22316 1.96524,-3.22317 2.60476,-0.65375 2.60476,-0.65375 2.36572,1.07789 2.36572,1.07789 1.05496,3.79903 1.05497,3.79902 0.006,17.25 L 295,652 h 7 7 v -17.53212 -17.53212 l 1.44804,-3.46564 1.44804,-3.46565 2.47822,-1.12915 2.47822,-1.12915 2.63964,0.66251 2.63964,0.6625 1.4341,3.43229 1.4341,3.43229 V 633.96788 652 h 7 7 v -21.78811 -21.78811 l -2.25,-4.3879 -2.25,-4.3879 -3.4844,-1.82399 L 327.5312,596 h -4.79772 -4.79772 l -3.32626,1.3898 -3.32626,1.3898 -2.03386,2.18309 -2.03386,2.1831 -1.4282,-2.03904 -1.4282,-2.03904 -2.92956,-1.52769 -2.92956,-1.5277 -4.6849,-0.006 -4.6849,-0.006 -2.8151,1.06362 -2.8151,1.06362 -2.53819,2.42054 -2.53819,2.42055 0.0382,-2.73416 L 278.5,597.5 271.75,597.20431 265,596.90862 V 624.45431 652 Z m 133.75,6.4e-4 L 413,652 l 0.002,-17.75 0.002,-17.75 1.74844,-3.48928 1.74845,-3.48928 2.60957,-0.90437 2.60957,-0.90438 2.62224,0.65814 2.62224,0.65814 1.51819,2.93586 1.5173,2.93585 V 633.45034 652 h 7.2627 7.2627 l -0.14172,-21.91651 -0.14172,-21.91651 -2.37634,-4.33349 -2.37635,-4.33349 -3.49463,-1.80305 -3.49464,-1.80306 -6.51436,0.32243 -6.51435,0.32243 -3.73565,2.84931 L 412,602.23738 V 599.61869 597 h -6.4691 -6.4691 l -0.2809,27.50064 -0.2809,27.50065 z M 460.5,652 H 468 V 624.5 597 h -7.5 -7.5 v 27.5 27.5 z m 132,0 H 600 V 630.5 609 h 5 5 v -6 -6 h -5 -5 v -4.94424 -4.94423 l 2.41561,-2.80577 2.41561,-2.80576 6.33439,0.09 6.33439,0.09 4.75,2.12444 4.75,2.12445 v -6.93879 -6.93878 l -3.25,-1.70801 -3.25,-1.70801 -8.65307,-0.43536 -8.65306,-0.43535 -5.4539,2.49688 -5.4539,2.49687 -2.54483,3.37081 -2.54484,3.37081 -1.09262,4 -1.09263,4 -0.006,4.75 L 585,597 h -4 -4 v 6 6 h 4 4 v 21.5 21.5 z m 29.25,5.7e-4 L 629,652 V 624.5 597 h -7 -7 l -0.0345,13.25 -0.0345,13.25 -0.21553,14.25057 L 614.5,652.00114 Z M 646,652 h 7 l 0.0435,-14.25 0.0435,-14.25 0.86257,-4.47087 0.86256,-4.47087 2.64965,-2.27913 L 660.11153,610 H 665.05576 670 v -6.93358 -6.93358 l -2.75,-0.34235 -2.75,-0.34236 -2.91013,0.75205 -2.91013,0.75206 -2.33987,2.19819 L 654,601.34863 V 602.67431 604 h -0.7992 -0.7992 l 0.40861,-3.5 0.4086,-3.5 H 646.10941 639 v 27.5 27.5 z m 202.5,0 H 856 V 624.5 597 h -7.5 -7.5 v 27.5 27.5 z m 1.4985,-63 h 3.72877 l 2.63637,-2.63636 L 859,583.72727 v -3.21761 -3.21761 L 856.54775,574.64602 854.0955,572 l -4.29775,0.0318 -4.29775,0.0318 -1.58666,1.21819 -1.58665,1.2182 -1.22992,2.30865 -1.22992,2.30865 0.64336,2.92917 0.64335,2.92916 2.55808,2.01218 2.55808,2.01219 z m -388.73054,-2 h 3.82295 l 2.45454,-2.45455 L 470,582.09091 v -3.62238 -3.62238 L 467.07692,571.92308 464.15385,569 h -2.62659 -2.62658 l -2.92501,1.51258 -2.92501,1.51258 -0.86194,3.23742 -0.86194,3.23742 0.93988,2.76563 0.93989,2.76563 2.11923,1.48437 L 457.44501,587 Z M 511.5,545.89948 v 0.0631 l 21,-5.40567 21,-5.40568 1.66888,-23.82559 1.66887,-23.8256 1.10378,-9.98503 1.10377,-9.98503 2.45834,-3.7148 2.45833,-3.71479 5.76901,-3.87389 5.76902,-3.87389 12,-6.56509 12,-6.56509 21.5,-11.49019 21.5,-11.49019 11.5,-6.18399 11.5,-6.18399 1.25,-1.62815 1.25,-1.62814 v -2.73629 -2.73629 L 665.36514,393.07258 662.73028,391 h -2.23345 -2.23346 l -16.88168,5.05412 -16.88169,5.05411 -17,5.39801 -17,5.39801 -17.70927,5.00387 -17.70926,5.00386 -13.29074,2.6094 -13.29073,2.6094 -10.5,0.57023 -10.5,0.57024 -10.5,-1.19502 -10.5,-1.19501 -13.5,-3.05849 -13.5,-3.05849 -13.5,-3.95043 -13.5,-3.95044 -22,-6.86059 -22,-6.8606 -12.34129,-3.57109 L 363.81742,391 H 360.90871 358 l -2,2 -2,2 v 2.06574 2.06574 l 1.04077,1.9447 1.04077,1.9447 9.20923,4.61204 9.20923,4.61205 22.5,12.01424 22.5,12.01424 10.5,5.98042 10.5,5.98042 5,3.06498 5,3.06498 4.25046,3.3852 4.25047,3.38521 2.49471,3.27073 2.49471,3.27074 0.9474,4.99564 0.94741,4.99564 2.62072,28.39626 2.62072,28.39626 0.51052,0.51052 0.51052,0.51053 19.67618,5.17772 19.67618,5.17772 z m -189.75,-4.29952 2.75,-0.55896 3,-0.51206 3,-0.51206 17.5,-1.96749 17.5,-1.9675 16.5,-1.21023 16.5,-1.21023 30.24709,-0.0807 30.24708,-0.0807 -0.009,-3.5 -0.009,-3.5 -1.46645,-15.5 -1.46645,-15.5 -1.11844,-9 -1.11843,-9 -1.51432,-3.24374 -1.51431,-3.24374 -3.63903,-3.54905 -3.63903,-3.54906 -12,-6.81937 -12,-6.81937 -18.73729,-10.15093 -18.73729,-10.15092 -9.76271,-5.60323 -9.76271,-5.60322 -1.75613,-1.54422 -1.75613,-1.54422 -0.55616,0.55616 -0.55616,0.55615 1.98951,8.35438 1.98952,8.35438 3.05879,8.28029 3.05879,8.28028 3.93583,8.21972 3.93583,8.21971 6.98058,10.5 6.98058,10.5 7.18301,7.75211 7.18302,7.75212 9.02887,7.20978 9.02888,7.20978 -0.86431,0.23262 -0.86432,0.23263 -14,1.62277 -14,1.62277 -17.18533,3.438 -17.18533,3.43799 -14.95193,4.50107 -14.95192,4.50107 -4.61274,2.04044 L 319,541.09359 v 0.53266 0.53266 z m 382,0.29826 L 704,542 v -0.91258 -0.91257 l -6.75,-2.53471 -6.75,-2.53471 -8,-2.52275 -8,-2.52275 -10,-2.47993 -10,-2.47993 -9.5,-1.64864 -9.5,-1.64864 -17.3098,-2.19399 -17.30981,-2.19399 5.80981,-3.95695 5.8098,-3.95696 9.5,-9.52531 9.5,-9.52532 6.12329,-8.97513 6.12328,-8.97514 4.69362,-9.36322 4.69361,-9.36323 3.00073,-8.13677 3.00073,-8.13678 2.43237,-9.35948 L 664,418.78105 v -1.92498 -1.92498 l -6.06404,4.27647 -6.06403,4.27647 -1.4794,1.63472 -1.47939,1.63471 -3.46298,9.87327 -3.46298,9.87327 -5.04199,10.06482 -5.04198,10.06482 -6.44838,8.59196 -6.44837,8.59197 -8.5638,8.01236 -8.5638,8.01236 -8.29179,5.57434 -8.29179,5.57435 -9.64764,4.57013 L 566,520.12724 v 1.79681 1.79681 l -0.63592,4.63957 -0.63593,4.63957 23.88593,0.0141 23.88592,0.0141 17,0.97574 17,0.97574 20.5,2.07275 20.5,2.07274 8,1.33561 8,1.33562 z M 513.5,419.31346 l 5,-0.52508 4.59882,-1.9523 4.59882,-1.9523 4.06724,-4.19189 4.06723,-4.19189 2.33342,-4.5 2.33341,-4.5 0.34841,-8.13453 0.3484,-8.13452 -1.9852,-4.48788 -1.98521,-4.48788 -3.79921,-4.20528 -3.79922,-4.20528 -5.06345,-2.65828 -5.06346,-2.65829 h -8.5 -8.5 l -5,2.67557 -5,2.67557 -3.26058,3.12097 -3.26057,3.12097 -1.9929,3.9064 -1.99289,3.90639 -1.10403,5.14792 -1.10404,5.14792 1.17556,6.13512 1.17555,6.13511 3.43809,5.24386 3.43809,5.24386 5.31254,3.52733 5.31255,3.52734 4.43131,0.89807 4.43132,0.89808 z m -44.64159,-11.4469 1.35841,0.13344 -0.53242,-2.25 -0.53242,-2.25 -1.26194,-7.69611 -1.26193,-7.69612 1.08121,-6.98524 1.08122,-6.98525 2.55061,-5.57128 2.55062,-5.57129 5.22848,-5.52834 5.22848,-5.52834 8.92728,-4.46902 L 502.2033,343 h 1.3506 1.35061 l 0.29774,-16.00138 0.29775,-16.00139 -7,0.0121 -7,0.0121 -13.5,1.53444 -13.5,1.53445 -5.27377,0.77862 -5.27377,0.77862 -0.89597,0.92623 -0.89597,0.92623 -2.60318,9 -2.60317,9 -2.02299,11 -2.02299,11 -0.52455,16 -0.52455,16 0.82046,5.92502 0.82045,5.92503 12,3.19154 12,3.19154 z m 99.43143,-1.9057 3.78984,0.0391 3.85939,-1.96891 3.85939,-1.96892 2.10077,-3.39912 L 584,395.26393 V 389.5 383.73607 l -2.05041,-3.31763 -2.0504,-3.31763 -3.4496,-2.13196 L 573,372.83688 v -9.14643 -9.14644 l 6.25,-5.85448 6.25,-5.85448 0.29038,-31.41753 L 586.08076,280 h 0.51449 0.51449 l 5.90631,4.0109 5.90631,4.0109 6.03882,5.02556 6.03882,5.02555 v 25.23614 25.23614 l -3.36285,1.81102 -3.36285,1.81101 -2.09519,3.72789 -2.09519,3.72788 -0.64826,4.05399 -0.64826,4.05398 1.98024,4.47667 1.98025,4.47666 3.28442,2.33872 3.28442,2.33871 5.24885,0.43528 5.24884,0.43527 3.9749,-2.23402 3.97491,-2.23402 2.03258,-3.63212 2.03258,-3.63211 0.67739,-3.64762 0.67739,-3.64761 -1.93115,-4.35239 -1.93116,-4.35238 -2.41093,-2.25291 -2.41093,-2.2529 -1.77297,-1.25048 -1.77297,-1.25047 0.27297,-18.99662 L 621.5,309.5 l 3.5,4.78703 3.5,4.78704 4.73415,7.71296 4.73415,7.71297 4.5641,10.7475 4.56411,10.74749 3.10587,12.00251 3.10587,12.0025 h 5.36493 5.36492 l -0.61048,-2.75 -0.61047,-2.75 -2.93371,-11.29395 -2.93371,-11.29394 -2.33616,-6.20606 -2.33617,-6.20605 -3.55603,-7.06087 -3.55603,-7.06087 -6.21093,-9.28545 -6.21094,-9.28545 -9.03968,-9.45568 -9.03969,-9.45568 -7.69328,-5.79705 -7.69328,-5.79706 -8.82413,-5.33003 -8.82414,-5.33004 -9.95456,-4.38099 -9.95455,-4.38099 -0.75473,0.81008 -0.75472,0.81008 -0.6539,3.10927 -0.6539,3.10927 8.79854,4.39073 8.79855,4.39073 0.26393,31.66338 0.26393,31.66338 -5.90827,5.83662 -5.90827,5.83662 -1.10008,4 -1.10009,4 -0.0441,8.5 -0.0441,8.5 -3.12791,2 -3.12791,2 -1.85967,2.52345 -1.85968,2.52345 -0.59567,3.67067 -0.59567,3.67067 0.66157,3.52644 0.66156,3.52645 2.66063,3.16198 2.66064,3.16198 3.04957,1.32831 3.04958,1.32832 z m 0.50561,-9.0009 -1.29545,-0.04 -2.66814,-1.449 -2.66814,-1.44901 -0.68764,-3.1308 -0.68763,-3.13079 1.95464,-2.63016 1.95465,-2.63016 3.09217,-0.30896 3.09217,-0.30896 2.05896,2.05896 L 575,386 v 3.04545 3.04546 l -2.45455,2.45454 L 570.09091,397 Z M 615.73402,373 h -2.3569 L 611.18856,370.96104 609,368.92209 v -3.35026 -3.35026 l 1.84417,-2.27745 1.84417,-2.27745 H 616 h 3.31166 l 1.84417,2.27745 1.84417,2.27745 v 2.93467 2.93467 l -2.45455,2.45454 L 618.09091,373 Z M 428.12445,396.88788 429.7489,397 l -0.50621,-8.87822 -0.50621,-8.87821 1.22089,-13.37179 1.22089,-13.37178 1.9793,-10 1.97931,-10 2.34237,-7 2.34238,-7 -0.22085,-0.2267 -0.22084,-0.22671 -7.37543,2.08719 -7.37542,2.08718 -9.10553,3.71912 -9.10552,3.71911 -6.08829,3.56825 -6.08828,3.56825 -2.87073,1.78963 -2.87073,1.78963 3.48993,-3.73263 3.48993,-3.73262 7.01007,-5.3112 7.01007,-5.3112 7.31307,-4.29509 7.31308,-4.29509 9.57711,-3.29187 9.57712,-3.29187 3.60981,-6.6007 3.60981,-6.6007 4.84773,-6.50576 4.84773,-6.50575 7.24129,-5.45024 L 474.67804,270 h 0.70679 0.70678 l -3.47521,4.55135 -3.47521,4.55134 -6.77604,13.40988 -6.77604,13.40987 0.49801,0.49802 0.49802,0.49801 5.45743,-1.40262 5.45743,-1.40262 10.5,-1.48361 10.5,-1.4836 8.25,-0.67709 8.25,-0.67709 v -24.5142 -24.51419 l -8.75,0.687 -8.75,0.687 -12.37867,2.46311 -12.37868,2.46312 -9.62132,3.57037 -9.62133,3.57038 -9.6468,5.00771 -9.6468,5.0077 -8.8532,6.59524 -8.8532,6.59524 -8.65371,8.75594 -8.65371,8.75594 -5.4615,7.7889 -5.46151,7.7889 -4.23494,7.5 -4.23494,7.5 -3.31695,8 -3.31694,8 -2.5054,9 -2.5054,9 -0.67748,4.65955 -0.67748,4.65954 7.84998,1.68471 7.84998,1.6847 17.5,4.36371 17.5,4.3637 9.5,2.92992 9.5,2.92992 z m 112.91366,-52.97383 2.53811,0.086 4.46189,-2.25 4.46189,-2.25 2.78978,-5.5751 2.78979,-5.57511 -0.67635,-4.22966 -0.67635,-4.22966 -2.1444,-3.19524 -2.14439,-3.19523 -3.71634,-2 -3.71634,-2 -0.003,-28.19098 -0.003,-28.19099 -0.75,-0.45264 -0.75,-0.45265 -11.75,-0.72627 L 520,250.7602 v 3.54045 3.54044 l 3.25,0.62714 3.25,0.62714 4.75,1.05205 4.75,1.05206 V 285.59974 310 h -0.9652 -0.96521 l -3.68375,3.23438 -3.68375,3.23437 -1.35105,3.23351 -1.35104,3.2335 v 4.08178 4.08178 l 1.41072,2.70034 1.41073,2.70034 2.9436,2.79752 2.94359,2.79753 2.89568,0.86652 2.89568,0.86652 z M 540.67431,334 h -3.32568 L 535.17431,331.68555 533,329.3711 v -2.55069 -2.55069 l 2.02609,-2.57575 2.02608,-2.57575 1.92394,-0.61064 1.92393,-0.61063 2.9288,1.51454 2.9288,1.51454 0.62118,1.61877 L 548,324.16357 V 327.08179 330 l -2,2 -2,2 z"
         id="path4" />
      <path
         style="fill:#026fc8"
         d="M 517.92296,677.50743 512.84593,677.5 512.42296,677.08333 512,676.66667 v -6.20515 -6.20515 l 3.75,-0.0394 3.75,-0.0394 1.60944,-0.3768 1.60943,-0.3768 1.42845,-1.462 1.42845,-1.46199 1.77503,-4.69818 1.77503,-4.69818 -1.0981,-2.05182 -1.0981,-2.0518 h 0.65763 0.65763 L 527,645.5 525.75511,644 H 526.5 527.24489 L 526,642.5 524.75511,641 H 525.5 526.24489 L 525,639.5 523.75511,638 H 524.5 525.24489 L 524,636.5 522.75511,635 h 0.56314 0.56314 l -1.38951,-2.6783 -1.38952,-2.6783 0.50784,-0.8217 L 522.11803,628 H 521 519.88197 l 0.57532,-0.9309 0.57533,-0.9309 -0.97263,-0.60113 -0.97264,-0.60112 0.56331,-1.46798 L 520.21398,622 h -1.07561 -1.0756 l 0.5756,-1.5 0.57561,-1.5 h -1.07561 -1.0756 l 0.5756,-1.5 0.57561,-1.5 h -1.07561 -1.0756 l 0.5756,-1.5 0.57561,-1.5 H 516.10699 515 l 0.11842,-0.75 0.11842,-0.75 -0.24342,-0.75 -0.24342,-0.75 -0.21137,-0.75 -0.21136,-0.75 -0.64697,-1.5 -0.64696,-1.5 -1.42343,-4.11145 -1.42343,-4.11146 7.99931,-0.1928 7.9993,-0.1928 -0.60885,0.98516 -0.60886,0.98515 L 526,599.5 l 1.03262,0.6382 -0.6024,0.9747 -0.6024,0.97471 1.20853,1.45619 1.20854,1.4562 H 527.5 526.75511 l 1.20854,1.4562 1.20853,1.45619 -0.64511,1.04381 -0.6451,1.0438 H 529 h 1.11803 l -0.6451,1.0438 -0.64511,1.04381 1.20853,1.45619 1.20854,1.4562 H 530.5 529.75511 l 1.05809,1.27492 1.0581,1.27493 0.33967,2.47507 0.33967,2.47508 0.7837,1.25 0.78369,1.25 h -0.68146 -0.68146 l 1.20854,1.4562 1.20853,1.45619 -0.49741,0.80483 -0.49742,0.80484 1.36143,1.86186 1.36143,1.86187 0.68778,-2.8729 0.68778,-2.87289 0.77708,-1 0.77708,-1 0.085,-0.75 0.085,-0.75 0.0822,-0.25 0.0822,-0.25 0.48212,-2.97508 0.48212,-2.97507 1.0581,-1.27493 L 543.24489,615 H 542.5 541.75511 l 1.26495,-1.52417 1.26494,-1.52416 -0.60285,-0.60285 -0.60285,-0.60285 1.40932,-3.37299 L 545.89795,604 h -0.57142 -0.57142 l 1.26495,-1.52417 1.26494,-1.52416 -0.63382,-0.63383 -0.63383,-0.63382 0.90271,-1.09201 0.90271,-1.09201 7.14124,0.33412 7.14125,0.33412 -1.04395,1.25789 -1.04396,1.25789 0.65799,0.65799 0.65799,0.65799 h -1.27365 -1.27366 l 0.56332,1.46797 0.56331,1.46798 -0.97264,0.60112 -0.97263,0.60113 L 558.5,607 559.03262,607.8618 558,608.5 556.96738,609.1382 557.5,610 558.03262,610.8618 557,611.5 l -1.03262,0.6382 0.56255,0.91023 0.56256,0.91024 -1.26081,2.27066 -1.26081,2.27067 -0.16043,0.75 -0.16044,0.75 -0.25,0.5 -0.25,0.5 -0.25,1 -0.25,1 -0.19931,0.25 -0.19931,0.25 -0.44559,2.42152 -0.44559,2.42151 -0.97142,1.17049 -0.97143,1.1705 0.57235,0.57234 0.57234,0.57235 -1.29347,2.33564 -1.29347,2.33565 0.20089,0.71531 0.20088,0.71531 -0.86863,2.28469 -0.86864,2.28469 -0.0393,0.80272 -0.0393,0.80273 -1.62203,2.47552 -1.62202,2.47552 0.60058,0.97176 0.6005,0.97175 H 544.05902 543 l 0.11842,0.75 0.11842,0.75 -0.24342,0.75 -0.24342,0.75 -0.25,1 -0.25,1 -0.25,0.5 -0.25,0.5 -0.25,1 -0.25,1 -0.25,0.5 -0.25,0.5 -0.17416,0.75 -0.17415,0.75 -0.76823,2.25 -0.76824,2.25 H 537.93261 537 l 0.21429,0.75 0.21428,0.75 -3.68095,3.61667 -3.68095,3.61666 L 529.53333,674.2 529,673.66667 v 1.13528 1.13528 l -1.5,-0.5756 -1.5,-0.57561 v 1.07561 1.0756 l -1.5,-0.5756 -1.5,-0.57561 v 0.86442 0.86442 z M 228.5,653.4516 l -3,0.60266 -1.40932,-0.93461 -1.40931,-0.93461 -1.34069,0.51447 L 220,653.21398 V 652.10699 651 l -0.87955,0.25 -0.87956,0.25 -2.60243,-2.78209 -2.60244,-2.78209 -1.26801,-2.21791 L 210.5,641.5 210.16683,619.25 209.83366,597 h 7.62144 7.62143 l -0.13948,19.25 -0.13947,19.25 2.48603,2.75 2.48604,2.75 h 2.05008 2.05007 l 2.61347,-0.99364 2.61347,-0.99364 1.49563,-3.57956 1.49564,-3.57955 -0.29401,-17.28378 -0.294,-17.28377 6.76099,-0.19617 6.76099,-0.19617 0.43099,1.30314 0.43099,1.30314 0.33856,26.25 0.33856,26.25 H 249.78054 243 v -3.10359 -3.10359 l -3.5348,3.10359 -3.53479,3.10359 -0.71521,0.0765 -0.7152,0.0765 -1.5,0.34795 -1.5,0.34796 z m 134.25,0.51799 -2.25,-0.0304 -1.75,-1.01928 -1.75,-1.01928 v 0.67213 0.67214 L 355.5,652 354,650.75511 v 0.81357 0.81358 l -1.57416,-1.94113 -1.57415,-1.94113 0.76611,1.5 0.76612,1.5 -1.7579,-1.42717 -1.75789,-1.42716 -1.45975,-2.82284 L 345.94864,643 h 0.64812 0.64813 l -1.07849,-1.2995 -1.07849,-1.29951 0.2299,-3.45049 0.22991,-3.4505 0.78516,-1.25 0.78515,-1.25 h -0.714 -0.71401 l 1.80998,-2 1.80998,-2 h -0.84355 -0.84355 l 1.93856,-1.80365 1.93856,-1.80364 3.5,-1.81669 3.5,-1.81668 3,-0.39789 3,-0.39788 5.84292,-0.57972 5.84292,-0.57972 -0.67074,-3.65207 -0.67073,-3.65206 -0.97219,-1 -0.97218,-1 -0.95,-0.125 -0.95,-0.125 -0.25,-0.21132 -0.25,-0.21133 -4.75,-0.28663 -4.75,-0.28663 v 0.84157 0.84157 l -1.5,-0.5756 -1.5,-0.57561 V 608.89301 610 h -2 -2 v 1.05902 1.05901 l -0.91459,-0.56524 -0.91459,-0.56525 -0.42793,1.25623 -0.42793,1.25623 -1.60118,-5.43153 -1.60118,-5.43154 2.09671,-1.81846 2.09671,-1.81847 1.09699,-0.11848 1.09699,-0.11849 1.25,0.16232 1.25,0.16232 v -0.82955 -0.82955 l 1.75,-0.18982 1.75,-0.18982 7,-0.37208 7,-0.37208 1.2062,0.93371 1.20619,0.9337 1.04381,-0.64511 1.0438,-0.6451 V 597.94098 599 h 1.82569 1.82568 l 2.04935,2.25 2.04935,2.25 1.31974,2.5 1.31974,2.5 0.19739,21.5 0.1974,21.5 -5.89139,0.1772 -5.89139,0.17721 -0.62391,-2.48585 -0.6239,-2.48585 -2.37688,2.23296 -2.37687,2.23296 -0.0153,-0.92432 -0.0153,-0.92431 -0.87095,1.375 -0.87096,1.375 H 367.61373 365 V 653.125 654 Z M 366.49576,642 h 3.39271 l 2.68419,-2.30884 2.68419,-2.30884 0.49719,-5.17434 0.49719,-5.17434 -1.69308,-0.6497 -1.69307,-0.64969 -2.43103,1.30105 -2.43104,1.30105 -0.65949,-0.6595 -0.6595,-0.6595 -1.34201,1.11377 L 364,629.24489 v -0.80255 -0.80256 L 361,631 l -3,3.36022 v 1.45522 1.45522 l 2.55152,2.36467 2.55152,2.36467 z m 131.77487,10.38633 -7.22937,0.25493 -1.02063,-1.02063 L 489,650.6 v 0.6909 0.6909 l -2.98017,-3.11847 -2.98018,-3.11847 0.49649,-0.80333 0.49648,-0.80333 -0.93149,-0.5757 -0.9315,-0.57569 -0.12125,-16.69651 -0.12124,-16.6965 -0.47224,-0.47223 -0.47224,-0.47224 -3.48839,-0.0747 -3.48838,-0.0747 0.0124,-4.5 0.0124,-4.5 0.84649,-1.33541 0.84649,-1.33541 0.63819,0.0854 L 477,597 h 2.5 2.5 v -6.4121 -6.4121 l 4.25,-0.77881 4.25,-0.77881 0.75,-0.18409 0.75,-0.18409 0.5,-0.25 0.5,-0.25 1.25,-0.12912 1.25,-0.12911 0.5,8.00411 0.5,8.00412 5.75,-0.15984 5.75,-0.15983 V 603.09016 609 h -6.06563 -6.06564 l 0.21594,14.72431 0.21593,14.7243 2.39173,1.88134 2.39173,1.88133 1.70797,-0.49219 1.70797,-0.49218 1.75,-0.72045 1.75,-0.72044 V 645.89301 652 l -0.75,-0.11842 -0.75,-0.11842 -0.5,0.18412 -0.5,0.18412 z M 160.25,651.70212 153,651.93373 V 610.46686 569 h 7.5 7.5 v 16.65499 16.65499 l 2,-1.80998 2,-1.80998 0.0153,0.90499 0.0153,0.90499 0.83479,-1.31648 0.83479,-1.31649 1.3999,-0.21163 1.39989,-0.21164 1.23068,-0.76896 1.23068,-0.76895 4.76932,0.20302 4.76932,0.20301 1,0.56594 1,0.56594 1.358,0.20549 1.35801,0.20549 2.14199,2.30331 2.142,2.30332 -0.25,0.76932 L 197,604 h 1.16667 1.16666 l -0.65799,0.65799 -0.65799,0.65799 1.24133,1.49315 1.24132,1.49314 0.32799,19.47007 0.32799,19.47007 -0.59704,2.37879 L 199.9619,652 H 193.48095 187 l -0.19479,-16.25 -0.1948,-16.25 -0.11233,-2.80587 -0.11233,-2.80587 -2.36028,-2.85743 -2.36028,-2.85742 -3.92623,0.27966 -3.92623,0.27965 -2.65636,2.65368 -2.65637,2.65368 -0.5,18.71521 -0.5,18.71522 z m 112,0.12549 -6.75,0.22845 V 624.77803 597.5 l 4.41979,-0.31579 4.41978,-0.3158 2.43798,0.6119 2.43798,0.61189 -0.48179,2.52029 -0.48178,2.5203 2.69335,-2.5804 2.69336,-2.58039 0.68066,0.68067 0.68067,0.68066 v -1.22568 -1.22568 l 0.9309,0.57532 0.9309,0.57533 0.65621,-1.06177 0.65622,-1.06177 5.16288,0.20275 5.16289,0.20276 2.22773,0.80949 2.22773,0.80949 2.18216,2.50969 2.18215,2.5097 2.4279,-2.4279 2.42789,-2.4279 3.4522,-1.13932 3.45219,-1.13933 5.59346,0.49763 5.59346,0.49763 0.61656,0.84312 0.61657,0.84311 2,1.15694 2,1.15694 -0.25,1.09306 L 335,603 h 1.05902 1.05901 l -0.56524,0.91459 -0.56525,0.91459 1.25623,0.41795 1.25623,0.41795 V 628.58254 651.5 l -5.89575,0.30425 -5.89574,0.30426 -0.81669,-0.81669 -0.81669,-0.81669 -0.11789,-18.67822 -0.11789,-18.67821 -2.37193,-2.55935 L 320.0955,608 h -2.11349 -2.11349 l -1.91134,1.02292 -1.91134,1.02292 -1.27292,2.22708 L 309.5,614.5 l -0.5,18.46351 -0.5,18.46351 -6.75,0.20615 -6.75,0.20615 -0.006,-17.16966 -0.006,-17.16966 -1.01304,-3.64719 -1.01304,-3.64719 -2.28303,-1.49589 -2.28302,-1.4959 -3.13365,1.3176 -3.13364,1.3176 -1.56472,3.02583 L 279,615.90068 v 17.84924 17.84924 z m 133.25,-0.0701 -7,0.25751 0.28311,-26.19494 0.28312,-26.19495 1.08933,-1.31256 L 401.24489,597 H 406.62244 412 v 2.61869 2.61869 l 3.72143,-2.83848 3.72143,-2.83847 6.8537,-0.0632 6.8537,-0.0632 0.49397,0.79926 0.49397,0.79926 0.9309,-0.57533 L 436,596.88197 V 598 v 1.11803 l 0.86635,-0.53543 0.86636,-0.53544 1.78863,1.97642 1.78864,1.97642 h -0.72309 -0.72308 l 2.18901,3.07419 2.18902,3.07418 0.14089,21.78793 0.14089,21.78794 -6.76181,0.0423 -6.76181,0.0423 -0.0158,-1.15445 -0.0158,-1.15445 -0.36846,-17.5 -0.36845,-17.5 -0.2824,-1.25 -0.2824,-1.25 H 428.83333 428 l 0.25,-1.1674 0.25,-1.1674 -3.18259,-0.95793 -3.18259,-0.95792 -2.55476,0.6412 -2.55476,0.6412 -1.76265,2.68556 L 413.5,614.40286 413,632.95143 412.5,651.5 Z m 54.88931,0.12323 L 454,651.74219 453.92857,639.37109 453.85714,627 v -4.5 -4.5 l 0.0714,-10.5 L 454,597 h 6.93809 6.9381 l 0.09,25.84497 0.09,25.84497 -0.63879,1.66467 -0.6388,1.66467 z m 154.21486,-0.15156 -0.60417,0.60416 0.0789,-1.91666 0.0789,-1.91667 0.52522,1.3125 0.52522,1.3125 z m 168,-13 -0.60417,0.60416 0.0789,-1.91666 0.0789,-1.91667 0.52522,1.3125 0.52522,1.3125 z m -117.1875,-28.80812 -1.91667,-0.0789 1.3125,-0.52522 1.3125,-0.52522 0.60417,0.60416 L 667.33333,610 Z M 693,607.84211 h -2.5 l 1.25,-0.50439 1.25,-0.50439 1.25,0.50439 1.25,0.50439 z m -23.33772,-1.59211 -0.50439,1.25 v -2.5 -2.5 l 0.50439,1.25 0.50439,1.25 z m -16.97295,-4.5 -0.45733,1.75 v -3.5 -3.5 l 0.45733,1.75 0.45732,1.75 z m -53.08516,-5.02083 -0.60417,0.60416 0.0789,-1.91666 0.0789,-1.91667 0.52522,1.3125 0.52522,1.3125 z M 460.75,586.5 h -4.25 l -2.30384,-2.25838 -2.30383,-2.25838 0.57015,-0.92252 0.57014,-0.92252 -0.8822,-0.54523 -0.8822,-0.54524 0.48247,-2.52386 L 452.23315,574 h 0.94244 0.94244 l -0.58702,-0.94983 -0.58703,-0.94982 2.11847,-1.13377 2.11847,-1.13377 3.45724,-0.32132 3.45724,-0.32132 2.36918,2.55505 2.36917,2.55505 0.65584,3.49591 0.65583,3.49591 -1.32271,0.83864 -1.32271,0.83864 0.78943,0.0153 0.78942,0.0153 -1.28942,1.39504 -1.28943,1.39504 -0.75,-0.45406 -0.75,-0.45405 v 0.80901 0.80902 z m 379.91228,-5.25 -0.50439,1.25 v -2.5 -2.5 l 0.50439,1.25 0.50439,1.25 z m -220.24561,-47.32895 -1.91667,-0.0789 1.3125,-0.52522 1.3125,-0.52522 0.60417,0.60416 L 622.33333,534 Z M 460.62244,463 h -0.37755 l -1.37245,-1.75 -1.37244,-1.75 1.75,1.37244 1.75,1.37245 V 462.62244 463 Z m 48.79423,-43.07895 -1.91667,-0.0789 1.3125,-0.52522 1.3125,-0.52522 0.60417,0.60416 L 511.33333,420 Z M 468.75,407.92987 l -1.25,-0.0701 -5.25,-1.78906 -5.25,-1.78907 v 0.24897 0.24897 l -6.75,-1.70301 -6.75,-1.70301 -0.82045,-5.93677 -0.82046,-5.93676 0.53445,-16 0.53444,-16 1.57455,-9 1.57455,-9 3.09858,-11.33392 3.09859,-11.33391 2.11287,-0.80951 2.11288,-0.80951 7.5,-1.09142 7.5,-1.09142 11,-0.9753 11,-0.97529 6,0.17814 6,0.17814 -0.2971,15.71289 -0.2971,15.71289 -2.93625,0.64491 -2.93625,0.64491 -0.65485,-0.16121 -0.65484,-0.16121 -0.61181,0.91877 -0.6118,0.91877 -6.26659,3.31481 -6.26658,3.3148 -4.48342,4.48342 L 475,361.26316 v 0.81873 0.81873 l -1.5896,0.88958 -1.5896,0.88959 0.15263,0.68369 0.15262,0.68368 -1.94455,5.22642 -1.94455,5.22642 -0.80495,5.5 -0.80495,5.5 0.0974,0.5 0.0974,0.5 0.56948,4.5 0.56948,4.5 0.97602,4.5 0.97602,4.5 0.0436,0.75 L 470,408 Z M 357.62244,404 h -0.37755 l -1.37245,-1.75 -1.37244,-1.75 1.75,1.37244 1.75,1.37245 V 403.62244 404 Z M 428,396.92148 l -1.5,-0.0794 -4.5,-1.50029 -4.5,-1.50028 -1.5,-0.571 -1.5,-0.571 -2,-0.36141 -2,-0.36141 -1.5,-0.6394 -1.5,-0.6394 -1,-0.31015 -1,-0.31015 -3.5,-0.63281 -3.5,-0.63282 -1.09201,-0.89732 -1.09201,-0.89732 -0.63382,0.63383 -0.63383,0.63382 -1.36617,-1.13382 -1.36618,-1.13383 -0.59146,0.59146 -0.59146,0.59146 -1.31653,-0.82201 -1.31653,-0.82202 -1.5,-0.30567 -1.5,-0.30567 -3.46321,-0.50841 -3.4632,-0.50841 -0.5368,-0.72647 -0.53679,-0.72646 -2.71626,-0.12969 -2.71626,-0.12969 -7.63372,-1.69834 -7.63372,-1.69834 0.67748,-4.65954 0.67748,-4.65955 2.50783,-9 2.50783,-9 1.03712,-1.25 1.03711,-1.25 h -0.65763 -0.65763 l 1.23709,-2.25 1.23709,-2.25 0.20923,-1.24739 0.20923,-1.24739 4.29217,-8.50261 L 375.40661,325 H 376.2033 377 v -1.32864 -1.32863 l 6.03072,-8.64344 6.03072,-8.64343 8.71928,-8.82277 8.71928,-8.82277 8.93483,-6.6565 8.93482,-6.6565 10.06518,-5.00766 10.06517,-5.00766 3.80322,-1.61317 3.80322,-1.61317 5.44197,-1.87232 5.44197,-1.87231 9.75481,-2.1422 9.75481,-2.1422 6,-0.42905 6,-0.42904 5.28027,-0.58282 5.28027,-0.58283 -0.0952,24.59855 -0.0952,24.59856 -4.18507,0.18632 -4.18507,0.18631 -4,0.25653 -4,0.25652 -4.5,0.50354 -4.5,0.50353 -7.70548,1.49433 -7.70547,1.49432 -3.7383,1.0322 -3.73829,1.03219 -0.45349,-0.45349 -0.4535,-0.45349 4.83458,-10.01941 L 465.37464,286 h 0.8717 0.87169 l -0.61803,-1 -0.61803,-1 h 0.9506 0.95061 l 0.58303,-2.32295 0.58302,-2.32296 3.57119,-4.67704 L 476.09161,270 h -0.55937 -0.55938 l -2.10305,1.25 -2.10305,1.25 -3.12157,2.5 -3.12157,2.5 -4.13427,4.13445 -4.13427,4.13445 -3.35949,4.86555 -3.35949,4.86555 -3.10948,5.80037 -3.10948,5.80037 -9.5955,3.29819 -9.59549,3.29819 -6.98791,4.15144 -6.9879,4.15144 h -0.99184 -0.99183 l -0.33334,0.79198 -0.33333,0.79198 -7,5.58427 -7,5.58428 -2.5,2.82302 -2.5,2.82301 2.87073,-1.80143 2.87073,-1.80142 6.08828,-3.56825 6.08829,-3.56825 9.10552,-3.71911 9.10553,-3.71912 7.37542,-2.08718 7.37543,-2.08719 0.22084,0.22671 0.22085,0.2267 -2.34238,7 -2.34237,7 -2.15688,10.5 -2.15687,10.5 -0.66156,8.5 -0.66156,8.5 v 13.25043 13.25042 z M 563.70573,371.25 l -0.43337,2.25 v -4.5 -4.5 l 0.43337,2.25 0.43337,2.25 z m -0.10156,-13.52083 -0.60417,0.60416 0.0789,-1.91666 0.0789,-1.91667 0.52522,1.3125 0.52522,1.3125 z M 611.747,336.25 611.43244,348.5 V 324 299.5 l 0.31456,12.25 0.31456,12.25 z m -71.33033,-1.32895 -1.91667,-0.0789 1.3125,-0.52522 1.3125,-0.52522 0.60417,0.60416 0.60416,0.60417 z m 17.24561,-6.67105 -0.50439,1.25 v -2.5 -2.5 l 0.50439,1.25 0.50439,1.25 z"
         id="path3" />
      <path
         style="fill:#0f1e2d"
         d="m 517.5,677.74782 -4,-0.0202 2.26166,-0.4349 2.26166,-0.4349 1.73834,0.45508 1.73834,0.4551 z M 531.15137,674 h -0.5 L 533,671.5 535.34863,669 h 0.5 0.5 L 534,671.5 531.65137,674 Z m 236.14829,-20.06339 -1.79966,-0.0634 -2.143,-0.86481 -2.143,-0.86481 -1.607,-2.29431 -1.607,-2.29431 v -2.23044 -2.23044 l 1.11027,-2.43679 1.11027,-2.43678 2.43678,-1.11027 L 765.09411,636 h 3.02987 3.02987 l 2.92307,2.92308 2.92308,2.92307 v 2.02987 2.02987 l -1.19469,2.62205 -1.19468,2.62205 -2.75566,1.42501 -2.75565,1.425 z m 34.20034,-0.5735 -4,0.59537 -3.8162,-1.38416 -3.81619,-1.38416 -2.03619,-1.84272 -2.03618,-1.84272 -1.39762,-2.7027 L 783,642.09932 v -5.40178 -5.40177 l 2.25104,-3.39789 2.25104,-3.39788 5.25721,-2.66545 5.25721,-2.66546 7.49175,-0.70203 L 813,617.76502 v -2.80993 -2.80993 l -2.63486,-2.07258 -2.63486,-2.07258 -4.11514,0.0237 -4.11514,0.0237 -5.81421,2.39073 -5.81421,2.39073 -0.34772,-1.16447 L 787.17614,610.5 786.08807,607.10078 785,603.70155 v -0.9061 -0.9061 l 5.6953,-2.60739 5.69531,-2.6074 7.05469,-0.4481 7.0547,-0.4481 4.20453,1.13712 4.20453,1.13712 3.02902,2.54875 3.02901,2.54875 1.51646,5.10645 L 828,613.363 V 632.6815 652 h -6.025 -6.025 l -0.6113,-3.05651 -0.6113,-3.0565 -2.6137,2.43432 -2.6137,2.43432 -2,1.00605 -2,1.00606 z M 803.04966,642 h 3.04966 l 2.82916,-1.46301 2.82916,-1.46302 0.62118,-1.61877 L 813,635.83643 v -4.53176 -4.53176 l -4.73683,0.71033 -4.73682,0.71033 -2.80614,1.45111 -2.80613,1.45111 -0.95704,2.51721 L 796,636.1302 V 637.0651 638 l 2,2 2,2 z m -308.63299,10.92105 -1.91667,-0.0789 1.3125,-0.52522 1.3125,-0.52522 0.60417,0.60416 0.60416,0.60417 z m 7.08333,-0.116 -3,-0.0371 1.76903,-0.46099 1.76903,-0.46099 1.23097,0.49804 1.23097,0.49805 z m 187.78212,0.15106 -7.78212,-0.0439 -3.87521,-1.38131 -3.8752,-1.38131 -1.05785,-1.05785 -1.05785,-1.05785 0.26689,-5.76695 0.26688,-5.76694 0.31927,-0.31976 0.31926,-0.31976 4.31749,2.20262 4.3175,2.20262 6.26352,0.50277 6.26351,0.50278 1.5159,-1.25808 L 697,638.75511 V 636.5 634.24489 l -1.37164,-1.13836 -1.37164,-1.13836 -7.31981,-2.48963 -7.31981,-2.48963 -2.40356,-2.24445 L 674.80997,622.5 673.40499,619.79966 672,617.09932 v -3.58178 -3.58178 l 1.36403,-3.26457 1.36402,-3.26457 3.11057,-2.61738 3.11057,-2.61737 3.65671,-1.20682 3.6567,-1.20682 7.6187,0.48069 7.6187,0.48069 2.75,1.30071 2.75,1.30071 v 6.36517 6.36516 l -2.75,-1.41155 -2.75,-1.41155 -5.72622,-1.18009 -5.72623,-1.18009 -2.77377,1.32943 -2.77378,1.32944 v 2.97261 2.97261 l 7.5,2.54195 7.5,2.54195 3.23307,1.73889 3.23308,1.73889 1.43119,2.76763 1.4312,2.76763 0.66715,3.55622 0.66715,3.55621 -1.06547,3.95686 -1.06547,3.95686 -2.76595,2.64932 -2.76595,2.64932 -3.71788,1.55305 L 697.06424,653 Z m 48.53362,0.0292 -6.31574,-0.0147 -2.4036,-1.23526 L 726.6928,650.5 724.5964,647.6802 722.5,644.8604 722.18688,626.9302 721.87375,609 H 718.43688 715 v -6 -6 h 3.45228 3.45229 l 0.29771,-6.11665 0.29772,-6.11665 6,-1.86862 6,-1.86862 0.75,-0.0147 L 736,581 v 8 8 h 6 6 v 6 6 h -6 -6 v 13.77749 13.7775 l 1.5567,2.2225 L 739.11341,641 H 743.5567 748 v 4.96482 4.96481 l -1.93426,1.03519 L 744.13148,653 Z M 305.41667,651.9211 303.5,651.8422 l 1.3125,-0.52522 1.3125,-0.52522 0.60417,0.60416 0.60416,0.60417 z m 81.08333,-0.116 -3,-0.0371 1.76903,-0.46099 1.76903,-0.46099 1.23097,0.49804 1.23097,0.49805 z m 44.10417,-0.0759 -0.60417,0.60416 0.079,-1.91666 0.0789,-1.91667 0.52522,1.3125 0.52522,1.3125 z m 7.8125,0.19188 -1.91667,-0.0789 1.3125,-0.52522 1.3125,-0.52522 0.60417,0.60416 0.60416,0.60417 z m 15.32265,-5.62946 -0.35396,6.20841 0.003,-13 0.003,-13 0.35078,6.79159 0.35078,6.79159 z M 592.46088,652 H 585 V 630.5 609 h -4 -4 v -6 -6 h 3.86563 3.86564 l 0.49211,-6.87795 0.49211,-6.87794 2.39226,-4.33336 2.39225,-4.33335 3.40104,-2.29082 3.40104,-2.29083 4.09896,-1.1087 4.09896,-1.10869 7,0.46687 7,0.46688 3.75,1.59292 3.75,1.59292 V 578.44897 585 l -0.75,-5e-4 -0.75,-5.1e-4 -5.26073,-1.99949 L 614.97855,581 h -3.42418 -3.42417 l -2.5128,0.95537 -2.5128,0.95536 -1.43263,2.29464 -1.43263,2.29463 -0.60054,4.75 -0.60054,4.75 H 604.51913 610 v 5.94774 5.94774 l -5.10747,0.30226 -5.10747,0.30226 0.0684,21.25 0.0683,21.25 z M 622,652 h -7 V 624.5 597 h 7 7 v 27.5 27.5 z m 23.90105,0 H 639 V 624.5 597 h 6.5 6.5 l 0.0588,4.25 0.0588,4.25 1.1912,-1.96127 1.19119,-1.96127 2.67308,-2.78873 L 659.84615,596 h 5.12902 5.12902 l -0.49803,6.25 -0.49803,6.25 -0.0541,0.51693 -0.0541,0.51693 -3.97906,0.10434 -3.97905,0.10433 -2.48576,1.62874 -2.48576,1.62873 -1.26514,2.25 -1.26515,2.25 -0.36899,17.25 -0.36899,17.25 z m 202.6568,0 h -7.44216 l -0.0838,-27.5 -0.0838,-27.5 H 848.47401 856 V 624.5 652 Z M 265.74588,641.25 265.42179,651.5 V 631 610.5 l 0.32409,10.25 0.32409,10.25 z M 487.62244,651 h -0.37755 l -1.37245,-1.75 -1.37244,-1.75 1.75,1.37244 1.75,1.37245 V 650.62244 651 Z m -56.87999,-10.20252 -0.33996,7.70252 0.002,-16 0.002,-16 0.33766,8.29748 0.33767,8.29748 z M 502,641.84211 h -2.5 l 1.25,-0.50439 1.25,-0.50439 1.25,0.50439 1.25,0.50439 z m -112.34406,-2.57308 -0.49805,1.23097 0.0371,-3 0.0371,-3 0.46099,1.76903 0.46099,1.76903 z m -30.99366,-2.01903 -0.50439,1.25 v -2.5 -2.5 l 0.50439,1.25 0.50439,1.25 z M 373,626.84211 h -2.5 l 1.25,-0.50439 1.25,-0.50439 1.25,0.50439 1.25,0.50439 z m 80.68708,-2.08045 -0.45508,1.73834 0.0202,-4 0.0202,-4 0.4349,2.26166 0.4349,2.26166 z m -64.03114,-1.49263 -0.49805,1.23097 0.0371,-3 0.0371,-3 0.46099,1.76903 0.46099,1.76903 z m -27.23927,-3.34798 -1.91667,-0.0789 1.3125,-0.52522 1.3125,-0.52522 0.60417,0.60416 0.60416,0.60417 z m 91.31931,-6.63454 -0.36602,5.21349 0.004,-11 0.004,-11 0.36191,5.78651 0.36191,5.78652 z M 374.62244,611 h -0.37755 l -1.37245,-1.75 -1.37244,-1.75 1.75,1.37244 1.75,1.37245 V 610.62244 611 Z M 477,608.84211 h -2.5 l 1.25,-0.50439 1.25,-0.50439 1.25,0.50439 1.25,0.50439 z m -114.58333,-0.92106 -1.91667,-0.0789 1.3125,-0.52522 1.3125,-0.52522 0.60417,0.60416 L 364.33333,608 Z M 399.44098,599 H 399 v -1 -1 h 1.05902 1.05901 l -0.61803,1 -0.61803,1 z M 501.5,597.80505 l -3,-0.0371 1.76903,-0.46099 1.76903,-0.46099 1.23097,0.49804 1.23097,0.49805 z m 54,-0.13319 -7,0.008 3.2277,-0.40166 3.22769,-0.40166 3.77231,0.39359 3.7723,0.39359 z M 366,596.84211 h -2.5 l 1.25,-0.50439 1.25,-0.50439 1.25,0.50439 1.25,0.50439 z m 62.5,-0.0371 -3,-0.0371 1.76903,-0.46099 1.76903,-0.46099 1.23097,0.49804 1.23097,0.49805 z M 849.9463,589 h -3.67658 L 843.63486,586.92742 841,584.85484 v -4.25311 -4.2531 l 2.31445,-2.17432 L 845.6289,572 h 3.75129 3.75129 l 1.79711,0.96178 1.79711,0.96179 1.25043,3.0188 1.25043,3.01881 -0.62539,2.49173 -0.62538,2.49174 -2.17646,2.02767 L 853.62288,589 Z M 461,586.768 h -3.5 l 1.75,-0.45733 1.75,-0.45732 1.75,0.45732 1.75,0.45733 z m 8.60417,-9.03883 -0.60417,0.60416 0.079,-1.91666 0.0789,-1.91667 0.52522,1.3125 0.52522,1.3125 z M 468.62244,574 h -0.37755 l -1.37245,-1.75 -1.37244,-1.75 1.75,1.37244 1.75,1.37245 V 573.62244 574 Z m -8.20577,-4.07895 -1.91667,-0.0789 1.3125,-0.52522 1.3125,-0.52522 0.60417,0.60416 0.60416,0.60417 z m 51.27409,-24.96748 -3.19076,-0.0464 -11,-2.95087 -11,-2.95087 -6.5,-1.53169 -6.5,-1.53169 -1.19226,-0.74434 -1.19227,-0.74435 -1.09926,-12.97666 -1.09926,-12.97667 -1.92052,-18.85588 -1.92053,-18.85587 -2.11741,-4.37399 -2.11741,-4.37399 -6.56725,-4.91816 -6.56725,-4.91817 -18.60329,-10.49161 -18.60329,-10.49161 -16,-8.488 -16,-8.488 -9.5,-4.7251 -9.5,-4.7251 -2.75,-2.58435 -2.75,-2.58435 V 397.31291 395 l 2.11954,-2.11954 2.11954,-2.11954 4.2043,0.57627 4.2043,0.57626 13.42616,3.93801 13.42616,3.93802 21,6.54397 21,6.54397 14,4.02294 14,4.02293 9,2.0929 9,2.0929 10,1.42714 10,1.42713 9.87166,0.0183 9.87166,0.0183 10.62834,-1.57319 10.62834,-1.57319 17,-4.34701 17,-4.34702 13,-3.97989 13,-3.97989 28,-8.66379 28,-8.66379 2.93438,0.57576 2.93439,0.57576 1.81561,1.64311 1.81562,1.64312 v 2.67069 2.6707 l -2.25,2.0996 -2.25,2.0996 -12,6.42652 -12,6.42652 -27.5,14.74447 -27.5,14.74447 -9.21186,5.47827 -9.21185,5.47826 -2.99607,3.41233 -2.99606,3.41233 -0.98821,3.76313 -0.98821,3.76313 -1.53762,19 -1.53762,19 -0.6664,12.25189 -0.66639,12.25188 -3.59986,0.94331 L 546.5,536.89039 530.69076,540.9452 514.88153,545 Z M 320.5,541.58065 l -2,0.49242 2.90033,-1.64724 2.90034,-1.64724 7.09966,-2.42388 7.09967,-2.42389 10.02995,-2.93066 10.02995,-2.93067 17.47005,-3.49026 17.47005,-3.49027 13.9649,-1.59271 13.96491,-1.59272 0.34557,-0.34557 0.34556,-0.34557 -9.31047,-7.52204 -9.31047,-7.52204 -4.1165,-4.33416 -4.1165,-4.33415 -4.78136,-5.97044 -4.78135,-5.97043 -4.32951,-6.75449 -4.32952,-6.75449 -4.45286,-8.86618 -4.45287,-8.86618 -3.63058,-10.40889 -3.63058,-10.4089 -1.36712,-6.48873 -1.36712,-6.48874 0.48231,-0.4823 0.48231,-0.48231 0.69562,1.06407 0.69563,1.06407 9.5,5.50852 9.5,5.50851 18,9.80522 18,9.80522 13.5,7.57772 13.5,7.57771 3.91021,3.51552 3.91022,3.51552 1.75803,4 1.75803,4 1.10334,9.5 1.10333,9.5 1.47546,15.5 1.47546,15.5 0.003,2.25 0.003,2.25 -21.75,0.002 -21.75,0.002 -19,1.01267 -19,1.01266 -16.5,1.54497 -16.5,1.54498 -11,1.48427 -11,1.48426 z M 700.36667,541 h -3.03334 l -0.43498,-0.43498 -0.43498,-0.43499 -14.48169,-1.62471 -14.48168,-1.62471 -15.5,-1.48622 -15.5,-1.48622 -35.78362,-0.59583 -35.78362,-0.59584 0.66616,-6.10825 0.66615,-6.10825 0.11746,-0.0886 0.11747,-0.0886 12.85418,-6.65973 12.85419,-6.65974 8.14581,-6.3686 8.14582,-6.36859 7.79811,-8.17245 7.79811,-8.17245 5.33033,-8.2106 5.33033,-8.21061 3.28551,-6.5 3.28552,-6.5 4.08604,-11.45086 4.08605,-11.45086 6.77611,-4.9397 6.77611,-4.9397 0.43012,0.43013 0.43013,0.43012 -1.45506,6.95442 -1.45505,6.95442 -3.13349,9.50601 -3.1335,9.50602 -4.70968,10.06253 -4.70969,10.06254 -5.56796,8.43746 -5.56796,8.43747 -7.07596,8.11905 -7.07596,8.11905 -7.76408,6.10134 -7.76408,6.10135 -2,1.4978 -2,1.4978 3,0.10832 3,0.10831 1.5,0.28922 1.5,0.28922 7,0.72575 7,0.72575 15,2.43964 15,2.43964 12.24167,3.00434 12.24167,3.00433 11.75833,4.04013 11.75833,4.04013 0.95,0.92442 L 703.4,541 Z M 516.33122,418.82715 511.5,419.55946 l -5.13919,-0.65701 -5.13919,-0.657 -5.18436,-2.82169 -5.18436,-2.82168 -2.78943,-3.55104 -2.78944,-3.55104 -1.63685,-3.20003 -1.63686,-3.20003 -1.07694,-5.02162 -1.07695,-5.02162 1.19253,-5.77835 1.19252,-5.77835 1.81184,-3.56821 1.81185,-3.56822 4.02735,-3.63847 4.02736,-3.63848 4.29506,-2.276 4.29506,-2.276 8,0.008 8,0.008 5.27943,2.36045 5.27943,2.36045 4.37854,4.86999 4.37855,4.87 1.59202,4.67234 1.59203,4.67234 -0.01,6.57186 -0.01,6.57186 -2.3587,5.0654 -2.35869,5.06539 -3.26869,3.72283 -3.26868,3.72283 -4.28163,2.50919 -4.28162,2.5092 z m 51.60306,-12.83331 -3.43428,-0.006 -2.99777,-1.56308 -2.99777,-1.56308 -1.83478,-1.66046 -1.83479,-1.66046 -1.41744,-3.39242 -1.41745,-3.39243 0.0164,-3.62787 0.0165,-3.62788 2.26043,-4 2.26043,-4 3.63944,-2.36339 3.63944,-2.36339 -0.0762,-10.13661 -0.0762,-10.13661 1.55829,-3 1.55829,-3 5.11582,-4.63774 5.11583,-4.63775 -0.2642,-31.83852 -0.2642,-31.83853 -8.75536,-4.52373 -8.75535,-4.52373 0.61071,-3 0.61071,-3 0.64967,-0.70503 0.64968,-0.70503 9.99497,4.28315 9.99497,4.28314 9.32724,5.6974 9.32724,5.6974 5.17276,3.8278 5.17276,3.8278 7.78415,7.27736 7.78415,7.27735 6.21585,7.76918 6.21585,7.76918 4.843,8.14212 4.84299,8.14212 3.79876,8.75846 3.79875,8.75846 2.25177,7.94957 2.25178,7.94957 1.74812,7.75 1.74813,7.75 h -5.16278 -5.16278 l -2.38015,-9.25 -2.38016,-9.25 -2.96299,-8.5 -2.96299,-8.5 -2.99916,-6 -2.99915,-6 -4.82602,-8 -4.82602,-8 -3.01991,-3.5 -3.01991,-3.5 -0.0406,19.68261 -0.0406,19.68261 1.93841,0.61523 1.93841,0.61523 3.01951,3.43903 3.01951,3.43903 1.00313,3.76313 1.00312,3.76313 -0.89466,3.92261 -0.89467,3.9226 -1.87817,2.51561 -1.87817,2.5156 -2.64674,1.97608 -2.64674,1.97608 -5.29147,0.37758 -5.29147,0.37758 -4,-2.29187 -4,-2.29187 -2.36178,-4.76179 -2.36177,-4.76179 0.66206,-4.41495 0.66206,-4.41494 2.23184,-3.32327 2.23184,-3.32326 3.71787,-2.41754 3.71773,-2.4177 v -24.02587 -24.02586 l -5.26169,-5.05659 -5.2617,-5.0566 -7.14376,-4.75 -7.14376,-4.75 H 586.59455 586 v 30.04966 30.04966 l -1.52568,2.95034 L 582.94864,346 h -0.7346 -0.73461 l -4.23971,4.11508 L 573,354.23017 v 9.30335 9.30336 l 3.28809,2.03215 3.28809,2.03215 2.21191,3.93557 2.21191,3.93556 v 4.65368 4.65369 l -1.96655,3.85476 -1.96656,3.85477 -4.34917,2.10539 L 571.36855,406 Z M 567.81969,397 h 1.91059 l 2.63486,-2.07258 L 575,392.85484 V 389.42742 386 l -2,-2 -2,-2 h -2.92742 -2.92742 l -2.07258,2.63486 L 561,387.26972 v 2.41059 2.4106 l 2.45455,2.45454 2.45454,2.45455 z m 48.10773,-24 h 2.92742 l 2.07258,-2.63486 L 623,367.73028 v -2.91059 -2.9106 L 620.54545,359.45455 618.09091,357 h -1.9106 -1.91059 l -2.63486,2.07258 L 609,361.14516 V 365.07258 369 l 2,2 2,2 z m -73.4736,-29.51931 -3.95382,0.56951 -4,-1.89318 -4,-1.89318 -2.18339,-2.38192 L 526.13322,335.5 525.06661,332.6849 524,329.8698 v -3.48456 -3.48456 l 1.61697,-3.20034 1.61698,-3.20034 2.13302,-2.3561 2.13303,-2.3561 2.25,-0.86915 2.25,-0.86915 v -24.41776 -24.41776 l -1.37215,-0.52655 -1.37215,-0.52654 -4.87785,-0.70826 L 523.5,258.74436 521.75,257.837 520,256.92963 v -3.03705 -3.03706 l 11.75,0.70008 11.75,0.70007 0.75,0.43118 0.75,0.43118 0.003,28.19099 0.003,28.19098 3.71634,2 3.71634,2 2.28096,3.39788 2.28096,3.39789 v 5.39195 5.39196 l -1.96891,3.85939 -1.96892,3.85939 -3.32726,2.05636 -3.32726,2.05636 z M 540.12639,335 h 0.97293 l 2.93585,-1.51819 2.93586,-1.51819 0.59256,-2.36098 0.59257,-2.36098 -0.32808,-2.82193 -0.32808,-2.82193 -3.27932,-1.90808 -3.27932,-1.90807 -2.84096,1.17676 -2.84096,1.17677 -1.12972,2.47946 L 533,325.09411 v 2.36405 2.36405 l 3.07673,2.5889 3.07672,2.58889 z m -38.70972,-23.07895 -1.91667,-0.0789 1.3125,-0.52522 1.3125,-0.52522 0.60417,0.60416 0.60416,0.60417 z m -20,-10 -1.91667,-0.0789 1.3125,-0.52522 1.3125,-0.52522 0.60417,0.60416 0.60416,0.60417 z m 9,-1 -1.91667,-0.0789 1.3125,-0.52522 1.3125,-0.52522 0.60417,0.60416 L 492.33333,301 Z M 492,252.84211 h -2.5 l 1.25,-0.50439 1.25,-0.50439 1.25,0.50439 1.25,0.50439 z"
         id="path2" />
    </g>
  </g>
</svg>
